<?xml version="1.0" encoding="UTF-8"?>
<svg width="60px" height="24px" viewBox="0 0 60 24" version="1.1" xmlns="http://www.w3.org/2000/svg" xmlns:xlink="http://www.w3.org/1999/xlink">
    <!-- Generator: Sketch 52.5 (67469) - http://www.bohemiancoding.com/sketch -->
    <title>eyeglasses</title>
    <desc>Created with Sketch.</desc>
    <g id="Page-1" stroke="none" stroke-width="1" fill="none" fill-rule="evenodd">
        <g id="List-detail" transform="translate(-35.000000, -176.000000)" fill="#F5F5F2" fill-rule="nonzero">
            <g id="item" transform="translate(22.000000, 143.000000)">
                <g id="Rectangle">
                    <g id="eyeglasses" transform="translate(13.000000, 33.000000)">
                        <path d="M59,10 L56.82,10 C55.869,4.334 50.97,0 45.072,0 C39.25,0 34.376,4.119 33.247,9.579 C32.276,8.765 31.168,8.333 30,8.333 C28.833,8.333 27.726,8.765 26.755,9.578 C25.639,4.118 20.825,0 15.072,0 C8.756,0 3.565,4.851 3.051,11 L1,11 C0.447,11 0,11.448 0,12 C0,12.552 0.447,13 1,13 L3.051,13 C3.565,19.149 8.756,24 15.072,24 C21.539,24 26.808,18.793 26.983,12.329 C27.836,11.044 28.898,10.333 30,10.333 C31.102,10.333 32.164,11.045 33.017,12.329 C33.195,18.793 38.528,24 45.072,24 C51.649,24 57,18.617 57,12 L59,12 C59.553,12 60,11.552 60,11 C60,10.448 59.553,10 59,10 Z M15.072,22 C9.519,22 5,17.514 5,12 C5,6.486 9.519,2 15.072,2 C20.64,2 25,6.393 25,12 C25,17.607 20.64,22 15.072,22 Z M45.072,22 C39.519,22 35,17.514 35,12 C35,6.486 39.519,2 45.072,2 C50.64,2 55,6.393 55,12 C55,17.607 50.64,22 45.072,22 Z" id="Shape"></path>
                    </g>
                </g>
            </g>
        </g>
    </g>
</svg>