<?xml version="1.0" encoding="UTF-8"?>
<svg width="332px" height="397px" viewBox="0 0 332 397" version="1.1" xmlns="http://www.w3.org/2000/svg" xmlns:xlink="http://www.w3.org/1999/xlink">
    <!-- Generator: Sketch 52.5 (67469) - http://www.bohemiancoding.com/sketch -->
    <title>giveaway</title>
    <desc>Created with Sketch.</desc>
    <g id="Page-1" stroke="none" stroke-width="1" fill="none" fill-rule="evenodd">
        <g id="Login-page" transform="translate(-8.000000, -195.000000)">
            <g id="giveaway" transform="translate(-80.000000, 195.000000)">
                <g id="background" transform="translate(88.000000, 0.000000)">
                    <path d="M49.5061878,156.460327 C51.6768318,160.431204 51.7155933,165.141753 49.6224723,169.15156 C49.2736188,169.813373 50.2814178,170.397325 50.6302713,169.735513 C52.9171998,165.336404 52.8784383,160.197623 50.5139868,155.876374 C50.1263718,155.175632 49.1573343,155.798514 49.5061878,156.460327 Z" id="Path" fill="#161616"></path>
                    <path d="M50.9403633,156.654978 C52.2582543,155.993165 53.8087143,155.175632 55.3204128,155.526003 C57.5685798,155.993165 57.6461028,157.822883 57.8011488,159.69153 C57.9561948,162.183061 57.8399103,164.830312 56.2119273,166.854681 C55.7467893,167.438633 56.5607808,168.256166 57.0259188,167.672214 C59.2740858,164.908172 59.5454163,160.586924 58.6926633,157.2 C57.6073413,153.112333 53.1885303,154.241308 50.3977023,155.642793 C49.6999953,155.954235 50.2814178,156.966419 50.9403633,156.654978 Z" id="Path" fill="#161616"></path>
                    <path d="M50.9403633,169.969094 C53.1110073,170.241605 55.2816513,169.385141 56.7158268,167.711144 C57.1809648,167.127192 56.3669733,166.309658 55.9018353,166.893611 C54.6614673,168.372957 52.8784383,169.0737 50.9403633,168.840119 C50.2038948,168.723328 50.2038948,169.891233 50.9403633,169.969094 Z" id="Path" fill="#161616"></path>
                    <path d="M50.5915098,105.189302 C51.0954093,104.216048 52.4908233,101.568796 54.0412833,104.021397 C54.3126138,104.410698 54.3126138,105.500743 54.3901368,105.890045 C54.5451828,106.707578 54.8165133,107.564042 55.3979358,108.186924 C57.3360108,110.211293 58.6926633,106.902229 60.7082613,107.992273 C63.2665203,109.354829 59.9330313,112.235661 62.0261523,113.831798 C62.5300518,114.2211 63.1114743,114.2211 63.6928968,113.987519 C64.0805118,113.831798 64.3906038,113.481426 64.7782188,113.286776 C66.2123943,112.663893 66.7162938,113.948588 66.8325783,115.077563 C66.8713398,115.427935 67.0651473,115.622585 67.4140008,115.661516 C67.8403773,115.700446 68.2279923,115.739376 68.6543688,115.778306 C69.3908373,115.856166 69.3908373,114.688262 68.6543688,114.610401 C68.2279923,114.571471 67.8403773,114.532541 67.4140008,114.493611 C67.6078083,114.688262 67.8016158,114.882912 67.9954233,115.077563 C67.8791388,114.026449 67.6853313,112.663893 66.7162938,112.04101 C65.6697333,111.340267 64.9720263,111.96315 64.0029888,112.430312 C63.5378508,112.663893 63.1502358,113.442496 62.4912903,112.508172 C62.2587213,112.157801 62.7626208,111.067756 62.8401438,110.678455 C62.9951898,110.055572 63.0727128,109.51055 62.8789053,108.887667 C62.5688133,107.914413 61.7160603,107.09688 60.7470228,106.785438 C59.5454163,106.357207 58.9639938,106.863299 57.8786718,107.17474 C56.9096343,107.447251 55.9405968,107.369391 55.5917433,106.318276 C55.4754588,105.928975 55.4366973,105.461813 55.3979358,105.072511 C55.2816513,104.449629 55.2041283,103.787816 54.8940363,103.203863 C53.3048148,100.284101 50.5527483,102.736701 49.5837108,104.72214 C49.2348573,105.267162 50.2426563,105.851114 50.5915098,105.189302 Z" id="Path" fill="#161616"></path>
                    <path d="M58.1112408,101.568796 C59.0415168,100.673403 59.8942698,100.284101 60.9020688,101.140565 C61.7160603,101.841308 61.5610143,102.074889 61.7935833,103.009212 C61.9486293,103.554235 62.1036753,104.060327 62.5688133,104.449629 C63.1502358,104.955721 63.8091813,104.955721 64.5456498,104.87786 C65.2433568,104.8 66.0573483,104.332838 66.6387708,105.072511 C66.9101013,105.422883 66.8713398,106.201486 66.8713398,106.629718 C66.9101013,107.797623 66.9101013,109.199108 68.2279923,109.62734 C68.6156073,109.744131 69.0419838,109.54948 69.3908373,109.66627 C69.8559753,109.47162 70.0497828,109.58841 70.0885443,110.094502 C70.2435903,110.405944 70.3211133,110.717385 70.2823518,111.106686 C70.4761593,112.00208 70.8250128,112.663893 71.5227198,113.286776 C72.0653808,113.792868 72.8793723,112.975334 72.3367113,112.469242 C71.1738663,111.379198 71.9878578,109.860921 71.0188203,108.887667 C70.0110213,107.875483 68.4217998,109.354829 68.0729463,107.486181 C67.8016158,106.045765 68.3442768,104.099257 66.4449633,103.593165 C65.0883108,103.242793 63.6541353,104.605349 62.9176668,102.736701 C62.6075748,101.958098 62.7238593,101.101634 62.1811983,100.361961 C60.9020688,98.6879643 58.5376173,99.5444279 57.2584878,100.751263 C56.7158268,101.257355 57.5685798,102.113819 58.1112408,101.568796 Z" id="Path" fill="#161616"></path>
                    <path d="M200.908607,173.93997 C199.745762,173.82318 201.490029,171.5263 201.838883,171.331649 C202.769159,170.825557 203.854481,171.098068 204.552188,171.837741 C206.063886,173.472808 204.784757,175.886478 202.730397,176.120059 C201.993929,176.19792 201.993929,177.365825 202.730397,177.287964 C204.435903,177.093314 205.947602,175.964339 206.335217,174.251412 C206.722832,172.577415 205.715033,170.786627 204.164573,170.124814 C202.652874,169.501932 200.98613,170.085884 200.094615,171.44844 C199.319385,172.616345 199.125578,174.952155 200.947368,175.107875 C201.645075,175.185736 201.645075,174.017831 200.908607,173.93997 Z" id="Path" fill="#161616"></path>
                    <path d="M193.078784,171.56523 C192.264792,170.825557 193.23383,169.346211 194.164106,170.163744 C195.133143,170.981278 193.815252,172.110253 192.923738,171.44844 C192.342315,170.981278 191.760893,171.993462 192.342315,172.460624 C193.156307,173.083507 194.396675,172.888856 195.133143,172.149183 C195.985896,171.292719 195.792089,169.969094 194.900574,169.229421 C194.00906,168.489747 192.72993,168.528678 192.032223,169.501932 C191.412039,170.358395 191.489562,171.60416 192.264792,172.343834 C192.807453,172.888856 193.660206,172.071322 193.078784,171.56523 Z" id="Path" fill="#161616"></path>
                    <path d="M327.542427,121.53997 C327.930042,128.780981 324.325223,135.74948 318.239667,139.642496 C317.619483,140.031798 318.200906,141.043982 318.82109,140.654681 C325.255499,136.567013 329.092887,129.209212 328.705272,121.53997 C328.666511,120.800297 327.503666,120.800297 327.542427,121.53997 Z" id="Path" fill="#161616"></path>
                    <path d="M328.317657,122.396434 C332.038762,125.121545 330.527063,130.065676 328.472703,133.29688 C326.534628,136.372363 323.394947,140.031798 319.363751,139.408915 C318.627282,139.292125 318.31719,140.4211 319.053659,140.53789 C323.898846,141.238633 327.581189,137.150966 329.829356,133.33581 C332.077523,129.559584 332.930276,124.342942 328.89908,121.38425 C328.278896,120.956018 327.697473,121.968202 328.317657,122.396434 Z" id="Path" fill="#161616"></path>
                    <path d="M2.0233503,87.7485884 C4.4653248,91.7973254 5.9382618,96.2742942 6.2871153,100.984844 C6.3646383,101.724517 7.5274833,101.724517 7.4499603,100.984844 C7.0623453,96.0407132 5.5894083,91.4080238 3.0311493,87.164636 C2.6047728,86.5028232 1.5969738,87.0867756 2.0233503,87.7485884 Z" id="Path" fill="#E8E8E8"></path>
                    <path d="M6.7522533,86.463893 C8.76785131,90.1233284 9.89193481,94.0942051 10.1632653,98.2597325 C10.2020268,98.9994056 11.3648718,98.9994056 11.3261103,98.2597325 C11.0547798,93.8995542 9.85317331,89.7340267 7.7600523,85.8799406 C7.4111988,85.2181278 6.4033998,85.8020802 6.7522533,86.463893 Z" id="Path" fill="#E8E8E8"></path>
                    <path d="M1.7132583,95.2231798 C5.0855088,93.0041605 8.88413581,91.8362556 12.9540933,91.7583952 C13.6905618,91.7583952 13.6905618,90.5904903 12.9540933,90.5904903 C8.72908981,90.6683507 4.6978938,91.9141159 1.1318358,94.2499257 C0.5116518,94.6392273 1.0930743,95.6514116 1.7132583,95.2231798 Z" id="Path" fill="#E8E8E8"></path>
                    <path d="M1.5969738,99.9726597 C5.8219773,97.4032689 10.4345958,95.7682021 15.3185448,95.028529 C16.0550133,94.9117385 15.7449213,93.7827637 15.0084528,93.8995542 C10.0082193,94.6392273 5.3180778,96.3521545 1.0155513,98.9604755 C0.3953673,99.3497771 0.976789801,100.361961 1.5969738,99.9726597 Z" id="Path" fill="#E8E8E8"></path>
                    <path d="M229.204502,119.16523 C227.421473,120.060624 226.723766,122.396434 228.235464,123.91471 C229.049456,124.732244 229.747163,124.498663 230.7162,124.810104 C231.336384,125.004755 232.034091,125.394056 231.917807,126.016939 C231.840284,126.445171 231.413907,126.795542 231.181338,127.145914 C230.793723,127.652006 230.328585,128.235958 230.173539,128.858841 C230.018493,129.598514 230.212301,130.338187 230.793723,130.844279 C231.646476,131.583952 232.77056,131.11679 233.700836,131.583952 C235.638911,132.518276 232.111614,136.605944 235.09625,137.384547 C235.832718,137.579198 236.14281,136.450223 235.406342,136.255572 C234.165974,135.944131 235.716434,133.569391 235.832718,132.829718 C235.910241,132.167905 235.793957,131.506092 235.290057,131.03893 C233.972166,129.754235 230.096016,131.11679 232.072853,127.846657 C232.693037,126.834473 233.81712,125.588707 233.080652,124.265082 C232.848083,123.83685 232.460468,123.603269 231.99533,123.486478 C231.530192,123.408618 230.793723,123.486478 230.328585,123.447548 C228.274226,123.330758 228.041657,121.033878 229.785924,120.138484 C230.44487,119.865973 229.863447,118.853789 229.204502,119.16523 Z" id="Path" fill="#E8E8E8"></path>
                    <path d="M237.809555,125.705498 C236.530425,126.21159 236.491664,127.613076 237.266894,128.66419 C237.770793,129.403863 238.584785,129.559584 239.24373,130.065676 C240.871713,131.272511 239.437538,132.284695 239.166207,133.686181 C238.701069,136.099851 241.259328,135.282318 241.995797,136.839525 C242.615981,138.12422 242.383412,139.564636 243.972633,140.148588 C244.67034,140.4211 244.980432,139.292125 244.282725,139.019614 C243.158642,138.630312 243.313688,136.489153 242.693504,135.632689 C242.499696,135.321248 242.228366,135.126597 241.957035,134.893016 C241.801989,134.776226 241.56942,134.815156 241.453136,134.737296 C241.181805,134.698366 240.987998,134.503715 240.910475,134.114413 C240.367814,133.764042 240.290291,133.41367 240.755429,133.024368 C241.104282,131.934324 241.801989,131.272511 241.065521,130.143536 C240.79419,129.715305 240.290291,129.403863 239.863914,129.131352 C239.515061,128.897771 236.995563,127.340565 238.158408,126.873403 C238.817354,126.561961 238.507262,125.432987 237.809555,125.705498 Z" id="Path" fill="#E8E8E8"></path>
                    <path d="M312.696773,204.305498 C309.867183,202.281129 310.332321,198.037741 313.39448,196.480535 C315.72017,195.31263 318.898613,196.402675 320.100219,198.699554 C321.301826,200.996434 320.255265,204.227637 317.968337,205.434473 C315.565124,206.680238 312.580488,205.590193 311.223836,203.371174 C310.836221,202.748291 309.828422,203.332244 310.216037,203.955126 C311.960304,206.874889 315.9915,208.159584 318.976136,206.213076 C321.805725,204.344428 322.69724,200.02318 320.604119,197.298068 C318.549759,194.650817 314.44104,194.027935 311.84402,196.169094 C308.820623,198.621694 309.053192,203.098663 312.154112,205.356612 C312.735534,205.745914 313.316957,204.73373 312.696773,204.305498 Z" id="Path" fill="#E8E8E8"></path>
                    <path d="M45.1648998,215.517385 C45.5912763,214.115899 46.2114603,213.726597 46.9479288,214.38841 C47.1417363,214.46627 47.3355438,214.583061 47.4905898,214.660921 C47.7619203,214.738782 48.1107738,214.816642 48.3821043,214.777712 C48.9635268,214.699851 49.4286648,214.34948 49.6999953,213.882318 C50.6690328,212.325111 49.5837108,210.806835 48.6146733,209.6 C48.1107738,209.016048 47.1804978,208.237444 47.2967823,207.342051 C47.4518283,205.629123 48.4596273,206.329866 49.3123803,206.213076 C49.9325643,206.135215 50.4752253,205.901634 50.7853173,205.317682 C51.0954093,204.81159 51.0178863,204.149777 50.9403633,203.604755 C50.9016018,203.293314 50.7853173,202.942942 50.7853173,202.631501 C50.5139868,201.813967 50.9016018,201.307875 51.9481623,201.113224 C52.4520618,201.463596 52.8784383,201.891828 53.2272918,202.43685 C53.6536683,203.059733 54.6614673,202.47578 54.2350908,201.852897 C53.1885303,200.373551 50.0876103,198.349183 49.5837108,201.424666 C49.3511418,202.981872 50.7853173,204.616939 48.4983888,205.006241 C47.3743053,205.200892 46.5990753,205.200892 46.2502218,206.524517 C45.9401298,207.614562 46.3665063,208.665676 47.0254518,209.52214 C47.3355438,209.911441 47.6843973,210.261813 47.9944893,210.612184 C48.3821043,211.001486 48.6534348,211.429718 48.8472423,211.93581 C48.3821043,212.402972 47.9557278,212.870134 47.4905898,213.337296 C47.1417363,213.415156 46.2502218,212.675483 45.7463223,212.636553 C43.4981553,212.480832 42.2965488,215.517385 44.5447158,216.490639 C45.2811843,216.80208 45.8626068,215.789896 45.1648998,215.517385 Z" id="Path" fill="#E8E8E8"></path>
                    <path d="M54.6227058,213.843388 C54.0025218,212.831204 53.0334843,211.273997 53.4598608,209.989302 C53.7699528,209.016048 55.0878438,208.587816 55.6692663,207.809212 C56.5607808,206.602377 56.4444963,205.006241 55.6305048,203.799406 C55.4754588,204.110847 55.2816513,204.383358 55.1266053,204.694799 C57.3360108,204.85052 59.1965628,203.526895 59.8555083,201.385736 C60.0880773,200.646062 58.9639938,200.373551 58.7314248,201.074294 C58.2275253,202.709361 56.8321113,203.643685 55.1266053,203.526895 C54.7002288,203.487964 54.3901368,204.032987 54.6227058,204.422288 C55.1266053,205.161961 55.3204128,206.213076 54.8165133,207.030609 C54.3513753,207.731352 53.7311913,207.770282 53.2272918,208.276374 C52.7621538,208.743536 52.4520618,209.210698 52.3357773,209.911441 C52.0256853,211.507578 52.8784383,213.103715 53.6536683,214.42734 C54.0025218,215.089153 55.0103208,214.505201 54.6227058,213.843388 Z" id="Path" fill="#E8E8E8"></path>
                    <path d="M173.000327,12.6912333 C175.054686,15.0659733 176.333816,17.8300149 176.876477,20.9054978 C176.992761,21.6451709 178.116845,21.3337296 178.00056,20.5940565 C177.419138,17.3239227 175.984962,14.3652303 173.814318,11.8347697 C173.310419,11.2897474 172.496427,12.1072808 173.000327,12.6912333 Z" id="Path" fill="#E8E8E8"></path>
                    <path d="M174.008126,12.8080238 C175.326017,11.6011887 180.597581,6.85170877 182.535656,8.21426449 C183.504693,8.91500743 184.357446,10.5111441 184.97763,11.5622585 C185.75286,12.8858841 186.373044,14.28737 186.876944,15.727786 C187.109513,16.428529 188.233596,16.1170877 188.001027,15.4163447 C187.342082,13.586627 186.52809,11.7958395 185.48153,10.1607727 C184.822584,9.10965825 183.814785,7.31887073 182.613179,6.8127786 C181.256526,6.22882615 179.589782,7.43566122 178.465698,8.097474 C176.566385,9.18751857 174.822117,10.5111441 173.194134,11.9904903 C172.651473,12.4965825 173.465465,13.3141159 174.008126,12.8080238 Z" id="Path" fill="#E8E8E8"></path>
                    <path d="M178.116845,21.6451709 C181.140242,19.0757801 184.434969,16.9735513 188.07855,15.3774146 C188.776257,15.0659733 188.156073,14.053789 187.497128,14.3652303 C183.776024,16.0002972 180.403773,18.1803863 177.302853,20.8276374 C176.721431,21.2947994 177.535422,22.1123328 178.116845,21.6451709 Z" id="Path" fill="#E8E8E8"></path>
                    <path d="M184.861346,10.6668648 C186.334283,9.42109955 189.62901,6.26775632 191.450801,8.33105498 C192.768692,9.81040119 193.621445,12.2240713 194.396675,14.0148588 C194.706767,14.7156018 195.714566,14.0927192 195.404474,13.4309064 C194.668005,11.7569094 193.892775,10.1607727 192.962499,8.60356612 C192.497361,7.78603269 191.915939,6.54026746 190.946901,6.18989599 C189.822818,5.80059435 188.621211,6.61812779 187.729697,7.16315007 C186.411806,7.94175334 185.210199,8.8371471 184.047354,9.81040119 C183.465932,10.3554235 184.318685,11.1729569 184.861346,10.6668648 Z" id="Path" fill="#E8E8E8"></path>
                    <path d="M181.992995,17.7910847 C183.814785,18.6086181 185.365245,19.6986627 186.799421,21.1001486 C187.070751,21.3726597 187.497128,21.2947994 187.729697,20.9833581 C189.435203,18.5307578 191.68337,16.66211 194.396675,15.3774146 C195.094382,15.0659733 194.474198,14.053789 193.815252,14.3652303 C190.90814,15.727786 188.543688,17.7521545 186.721898,20.3604755 C187.03199,20.3215453 187.342082,20.2826152 187.652174,20.243685 C186.179237,18.7643388 184.512492,17.635364 182.613179,16.7789004 C181.87671,16.5063893 181.295288,17.4796434 181.992995,17.7910847 Z" id="Path" fill="#E8E8E8"></path>
                    <path d="M190.443002,61.0814264 C190.365479,60.6531947 190.249194,60.2249629 190.171671,59.7967311 C190.520525,59.4463596 190.869378,59.1349183 191.295755,58.9013373 C191.528324,58.7456166 191.799654,58.589896 192.032223,58.3952452 C192.497361,58.0059435 192.807453,57.6166419 193.040022,57.0716196 C193.311353,56.3708767 193.23383,55.7090639 193.156307,54.9693908 C193.117545,54.7358098 193.078784,54.4632987 193.040022,54.2297177 C193.001261,53.9572065 193.156307,50.8038633 194.396675,51.8160475 C194.978097,52.2832095 195.792089,51.4656761 195.210666,50.9985141 C194.357913,50.2977712 193.466399,50.4145617 192.691169,51.1542348 C191.373278,52.4389302 191.993462,53.9572065 192.070985,55.5144131 C192.187269,57.8502229 189.163872,57.9670134 188.892542,60.1081724 C188.776257,61.0814264 189.163872,61.9768202 190.171671,62.171471 C190.869378,62.3271917 191.17947,61.1982169 190.443002,61.0814264 Z" id="Path" fill="#EC615B"></path>
                    <path d="M194.706767,57.8502229 C195.637043,58.589896 196.954934,58.0448737 197.148741,56.8380386 C197.342549,55.7869242 196.644842,54.8136701 196.722365,53.7625557 C196.838649,52.3221397 197.807687,51.0763744 199.125578,50.5702823 C199.823285,50.2977712 199.513193,49.1687964 198.815486,49.4413076 C197.536356,49.9084695 196.528557,50.7649331 195.985896,52.0496285 C195.714566,52.633581 195.55952,53.2953938 195.55952,53.9572065 C195.55952,54.2686478 195.598281,54.5800892 195.637043,54.8526003 C195.637043,54.8526003 196.218465,57.5387816 195.55952,56.9937593 C194.939336,56.5655275 194.125344,57.3830609 194.706767,57.8502229 Z" id="Path" fill="#EC615B"></path>
                    <path d="M94.7020969,186.319762 C94.0043899,185.930461 93.9268669,185.035067 94.4307664,184.451114 C94.9346659,183.867162 95.8649419,183.633581 96.6014104,183.750371 C97.2215944,183.867162 97.9193014,184.178603 98.1906319,184.801486 C98.5007239,185.502229 98.0355859,186.709064 97.1053099,186.592273 C96.3688414,186.475483 96.0587494,187.604458 96.7952179,187.721248 C98.1131089,187.915899 99.2759539,187.020505 99.4697614,185.657949 C99.7023304,184.217533 98.5394854,183.049629 97.2215944,182.699257 C95.8649419,182.309955 94.1594359,182.738187 93.3454444,183.983952 C92.6089759,185.112927 92.9190679,186.709064 94.1594359,187.331947 C94.7796199,187.682318 95.3610424,186.670134 94.7020969,186.319762 Z" id="Path" fill="#EC615B"></path>
                    <path d="M33.4589268,48.5459138 C33.6914958,47.7673105 33.9240648,46.9497771 34.1178723,46.1711738 C34.3504413,46.2490342 34.5830103,46.3268945 34.8155793,46.4047548 C35.1256713,46.443685 35.4357633,46.6383358 35.7458553,46.7161961 C36.1722318,46.8329866 36.6761313,46.8719168 37.1025078,46.7551263 C38.1103068,46.4047548 38.4203988,45.4315007 38.4203988,44.4582467 C38.4203988,43.4849926 38.0715453,42.4338782 38.8467753,41.6552749 C39.4669593,41.0323923 40.5135198,40.7988113 41.3275113,40.9934621 C44.0020548,41.6163447 43.7307243,45.0032689 42.5678793,46.8329866 C42.1802643,47.4558692 43.1880633,48.0398217 43.5756783,47.4169391 C44.8548078,45.3536404 45.1648998,42.2392273 43.0717788,40.5652303 C41.5213188,39.3194651 38.8855368,39.5530461 37.6839303,41.1881129 C36.8699388,42.2781575 37.4125998,43.2514116 37.1800308,44.4971768 C36.7924158,46.5604755 33.8853033,44.6528975 32.5674123,45.1200594 C30.0866763,46.0154532 30.8231448,49.1687964 33.0325503,49.7527489 C33.8465418,49.8695394 34.1566338,48.7405646 33.4589268,48.5459138 Z" id="Path" fill="#EC615B"></path>
                    <path d="M285.563723,219.293611 C286.377714,218.670728 287.269229,218.631798 288.238266,219.13789 C288.664643,219.371471 289.246065,218.982169 289.091019,218.476077 C288.742166,217.775334 288.819689,217.152452 289.401111,216.607429 C289.672442,215.400594 290.292626,215.322734 291.222902,216.334918 C291.494232,216.879941 292.269462,216.568499 292.308224,216.023477 C292.308224,215.517385 292.346985,214.972363 292.424508,214.46627 C292.540793,213.220505 293.354784,212.909064 294.78896,213.493016 C295.099052,214.193759 296.068089,213.570877 295.796759,212.909064 C295.331621,211.819019 294.091253,211.468648 293.005931,211.89688 C291.377948,212.558692 291.18414,214.505201 291.145379,216.023477 C291.494232,215.906686 291.881847,215.828826 292.230701,215.712036 C291.68804,214.544131 290.292626,214.115899 289.129781,214.699851 C287.656844,215.478455 287.579321,217.308172 287.966936,218.748588 C288.238266,218.515007 288.548358,218.320357 288.819689,218.086776 C287.501798,217.424963 286.26143,217.463893 284.9823,218.242496 C284.362116,218.670728 284.943539,219.682912 285.563723,219.293611 Z" id="Path" fill="#EC615B"></path>
                    <path d="M255.446037,58.0059435 C253.352916,58.6288262 251.879979,60.4196137 251.608649,62.638633 C251.337318,64.7408618 252.577686,67.3491828 254.903376,67.5827637 C256.608882,67.7384844 258.314388,65.7919762 257.267828,64.1958395 C256.143744,62.4439822 253.9731,63.7286776 253.081586,64.9744428 C250.562088,68.594948 252.810255,75.6802377 258.004296,74.0062407 C259.438472,73.5390788 261.221501,71.7872214 260.407509,70.1132244 C259.39971,68.0499257 257.151543,70.268945 256.570121,71.4368499 C255.368514,73.8505201 255.058422,77.3153046 257.539158,79.0282318 C259.477233,80.3518574 262.151777,79.4953938 262.771961,77.1985141 C262.927007,76.692422 262.190538,76.1473997 261.802923,76.6145617 C259.12838,80.0014859 261.182739,84.6731055 265.524027,84.8288262 C266.260496,84.8677563 266.260496,83.6998514 265.524027,83.6609212 C262.268061,83.5441308 260.562555,80.040416 262.616915,77.4710253 C262.306823,77.2763744 261.957969,77.0817236 261.647877,76.8870728 C261.066455,79.1060921 258.35315,78.7557207 257.306589,77.1206538 C256.376313,75.6023774 256.686405,73.5390788 257.539158,72.0208024 C257.732966,71.6315007 258.779526,69.8017831 259.39971,70.969688 C259.709802,71.5925706 258.546957,72.4879643 258.159342,72.7215453 C256.957736,73.3833581 255.368514,73.1887073 254.438238,72.176523 C253.469201,71.1643388 253.159109,69.6071322 253.275393,68.2445765 C253.352916,67.5049034 253.507962,66.6484398 253.856816,66.0255572 C254.011862,65.7919762 254.205669,65.5583952 254.360715,65.3248143 C255.329753,64.3904903 255.290991,64.6630015 254.205669,66.1812779 C253.430439,66.2591382 252.771494,64.1179792 252.732732,63.6118871 C252.693971,63.1057949 252.771494,62.5997028 252.887778,62.1325409 C253.275393,60.6921248 254.321954,59.6020802 255.756129,59.1738484 C256.492598,58.9402675 256.182506,57.8112927 255.446037,58.0059435 Z" id="Path" fill="#EC615B"></path>
                    <path d="M47.4518283,79.2228826 C48.2270583,78.4053492 49.1573343,78.5221397 50.1263718,78.6778603 C50.8240788,78.7946508 51.3667398,78.8725111 52.0256853,78.4832095 C52.5295848,78.1717682 52.8784383,77.5878158 53.1110073,77.0817236 C53.2660533,76.692422 53.3823378,76.3031204 53.4598608,75.9138187 C53.4986223,75.6413076 53.5761453,75.3687964 53.6149068,75.1352155 C53.6924298,74.2008915 54.3513753,73.8115899 55.5529818,73.9673105 C55.5142203,74.6680535 56.4832578,74.7069837 56.6770653,74.1230312 C56.9871573,73.2276374 57.3747723,72.2933135 58.1887638,71.7482912 C59.3903703,70.9307578 61.0958763,71.0864785 61.3284453,72.7604755 C61.4447298,73.5001486 62.5300518,73.1887073 62.4525288,72.4490342 C62.2199598,70.8528975 60.7082613,69.8407132 59.1190398,70.0742942 C57.1809648,70.3468053 56.1344043,72.176523 55.5917433,73.8505201 C55.9793583,73.8894502 56.3669733,73.9673105 56.7158268,74.0062407 C56.7933498,72.8383358 55.7080278,72.0986627 54.5839443,72.2543834 C52.7621538,72.4879643 52.6846308,74.551263 52.2970158,75.9138187 C52.0256853,76.8870728 51.7931163,77.6267459 50.4364638,77.5878158 C50.0488488,77.5878158 49.5837108,77.3153046 49.1573343,77.3153046 C48.4208658,77.3153046 47.6843973,77.5878158 47.1029748,78.0160475 C45.8238453,78.9893016 45.2811843,80.6243685 45.7850838,82.1426449 C46.0176528,82.8044577 47.1417363,82.5319465 46.9091673,81.7922734 C46.5990753,80.8579495 46.7541213,79.9625557 47.4518283,79.2228826 Z" id="Path" fill="#483989"></path>
                    <ellipse id="Oval" fill="#5222D0" cx="263.896044" cy="114.143239" rx="5.038995" ry="5.41129272"></ellipse>
                    <ellipse id="Oval" fill="#483989" cx="29.8424414" cy="118.950443" rx="3.333489" ry="3.30906389"></ellipse>
                    <ellipse id="Oval" fill="#483989" cx="40.6685658" cy="258.652006" rx="2.790828" ry="3.03655275"></ellipse>
                    <ellipse id="Oval" fill="#EC615B" cx="258.043058" cy="120.722437" rx="5.8529865" ry="5.56701337"></ellipse>
                    <ellipse id="Oval" fill="#EC615B" cx="142.184934" cy="3.34799406" rx="2.9846355" ry="3.34799406"></ellipse>
                    <ellipse id="Oval" fill="#EC615B" cx="305.991033" cy="180.480238" rx="4.186242" ry="4.67161961"></ellipse>
                    <ellipse id="Oval" fill="#EC615B" cx="20.1007449" cy="162.189773" rx="8.37248401" ry="8.60356612"></ellipse>
                </g>
                <g id="gift" transform="translate(156.000000, 168.000000)">
                    <path d="M0.193524096,78.1326531 C0.774096386,116.791837 1.39337349,155.45102 1.97394578,194.14898 C50.974247,205.238776 99.9358434,216.289796 148.936145,227.379592 C148.858735,182.632653 148.74262,137.885714 148.665211,93.1387755 C99.161747,88.0979592 49.6582831,83.0959184 0.193524096,78.1326531 Z" id="Path" stroke="#161616" stroke-width="2" fill="#FFFFFF"></path>
                    <path d="M256.806476,67.9346939 C256.612952,110.587755 256.419428,153.240816 256.225904,195.893878 C220.578765,206.402041 184.892922,216.871429 149.245783,227.379592 C149.129669,182.128571 149.013554,136.916327 148.89744,91.6653061 C184.854217,83.7938776 220.849699,75.8836735 256.806476,67.9346939 Z" id="Path" stroke="#161616" stroke-width="2" fill="#FFFFFF"></path>
                    <path d="M147.658886,92.7510204 C98.6972892,87.6714286 49.7743976,82.5918367 0.851506024,77.5122449 C33.0926205,69.2918367 65.3337349,61.0714286 97.5748494,52.8510204 C150.290813,57.9306122 203.045482,63.0102041 255.761446,68.1285714 C219.727259,76.3102041 183.693072,84.5306122 147.658886,92.7510204 Z" id="Path" stroke="#161616" stroke-width="2" fill="#FFFFFF"></path>
                    <path d="M183.499548,61.1877551 C170.920482,60.3346939 158.38012,59.4816327 145.801054,58.6285714 C121.02997,67.7020408 96.2588855,76.7755102 71.526506,85.8489796 C71.2942771,126.989796 71.0620482,168.130612 70.7911145,209.271429 C81.8993976,211.946939 93.0076807,214.583673 104.115964,217.259184 C103.651506,174.644898 103.148343,132.069388 102.683886,89.455102 C129.62244,80.0714286 156.560994,70.6102041 183.499548,61.1877551 Z" id="Path" stroke="#161616" stroke-width="2" fill="#292939"></path>
                    <path d="M194.336898,213.653061 C204.593675,210.512245 214.889157,207.371429 225.145934,204.230612 C224.79759,161.616327 224.410542,119.040816 224.062199,76.4265306 C173.823343,70.4938776 123.545783,64.5612245 73.3069277,58.6285714 C64.5983434,60.8 55.9284639,62.9714286 47.2198795,65.1816327 C96.375,72.8204082 145.53012,80.4204082 194.723946,88.0591837 C194.607831,129.936735 194.491717,171.77551 194.336898,213.653061 Z" id="Path" stroke="#161616" stroke-width="2" fill="#292939"></path>
                    <path d="M196.93012,3.4122449 C200.490964,4.88571429 201.071536,14.1142857 199.136295,21.3265306 C191.70497,48.9734694 143.59488,60.1795918 141.311295,55.9530612 C140.343675,54.1306122 148.626506,50.6795918 166.043675,33.3857143 C185.241265,14.3081633 192.246837,1.5122449 196.93012,3.4122449 Z" id="Path" stroke="#161616" stroke-width="2" fill="#FFFFFF"></path>
                    <path d="M97.9231928,21.5979592 C98.8521084,25.9795918 101.135693,31.0591837 115.804819,45.1734694 C125.635843,54.6346939 130.59006,59.3653061 131.983434,58.4346939 C134.808886,56.4959184 125.442319,37.844898 116.540211,24.544898 C111.973042,17.7204082 103.961145,5.81632653 99.8971386,7.36734694 C96.9942771,8.45306122 96.7620482,16.1306122 97.9231928,21.5979592 Z" id="Path" stroke="#161616" stroke-width="2" fill="#FFFFFF"></path>
                    <ellipse id="Oval" stroke="#161616" stroke-width="2" fill="#292939" cx="134.84759" cy="63.7469388" rx="10.2954819" ry="10.8959184"></ellipse>
                    <path d="M135.041114,59.3265306 C140.885542,53.6265306 146.80738,47.577551 152.729217,41.2571429 C165.811446,27.2979592 177.461596,13.5326531 187.795783,0.193877551 C190.040663,-0.0775510204 194.453012,-0.348979592 196.310843,2.17142857 C199.020181,5.77755102 194.723946,12.9122449 192.711295,16.2857143 C182.454518,33.3857143 149.826355,51.5714286 135.041114,59.3265306 Z" id="Path" stroke="#161616" stroke-width="2" fill="#161616"></path>
                    <path d="M100.284187,6.78571429 C101.716265,5.46734694 106.167319,8.14285714 108.799247,9.73265306 C130.628765,22.877551 133.299398,53.9755102 133.725151,59.6367347 C115.920934,36.6040816 96.6846386,10.1591837 100.284187,6.78571429 Z" id="Path" stroke="#161616" stroke-width="2" fill="#292939"></path>
                    <path d="M8.28283133,99.0714286 C25.9322289,99.3816327 43.6590361,99.3040816 61.2697289,100.118367 C79.0739458,100.932653 96.7233434,103.414286 114.295331,106.477551 C124.203765,108.222449 134.112199,110.122449 144.020633,112.061224 C144.756024,112.216327 145.065663,111.091837 144.330271,110.936735 C126.990512,107.563265 109.612048,104.228571 92.0787651,101.863265 C74.3519578,99.4979592 56.6251506,98.722449 38.7435241,98.4122449 C28.6028614,98.2571429 18.423494,98.0632653 8.28283133,97.9081633 C7.54743976,97.9081633 7.54743976,99.0714286 8.28283133,99.0714286 Z" id="Path" fill="#161616"></path>
                    <path d="M158.651054,111.479592 C188.298946,102.561224 218.52741,95.6204082 249.142922,90.7346939 C249.878313,90.6183673 249.568675,89.4938776 248.833283,89.6102041 C218.256476,94.4959184 188.028012,101.436735 158.341416,110.355102 C157.644729,110.54898 157.954367,111.673469 158.651054,111.479592 Z" id="Path" fill="#161616"></path>
                    <path d="M105.393223,164.873469 C105.393223,176.622449 105.393223,188.332653 105.393223,200.081633 C105.393223,200.818367 106.554367,200.818367 106.554367,200.081633 C106.554367,188.332653 106.554367,176.622449 106.554367,164.873469 C106.554367,164.136735 105.393223,164.136735 105.393223,164.873469 Z" id="Path" fill="#161616"></path>
                    <path d="M109.225,193.063265 C109.225,198.918367 109.225,204.812245 109.225,210.667347 C109.225,211.404082 110.386145,211.404082 110.386145,210.667347 C110.386145,204.812245 110.386145,198.918367 110.386145,193.063265 C110.386145,192.287755 109.225,192.287755 109.225,193.063265 Z" id="Path" fill="#161616"></path>
                    <path d="M189.343976,134.977551 C189.343976,144.361224 189.343976,153.744898 189.343976,163.128571 C189.343976,163.865306 190.50512,163.865306 190.50512,163.128571 C190.50512,153.744898 190.50512,144.361224 190.50512,134.977551 C190.50512,134.240816 189.343976,134.240816 189.343976,134.977551 Z" id="Path" fill="#161616"></path>
                    <path d="M191.434036,174.02449 C191.434036,180.344898 191.434036,186.704082 191.434036,193.02449 C191.434036,193.761224 192.595181,193.761224 192.595181,193.02449 C192.595181,186.704082 192.595181,180.344898 192.595181,174.02449 C192.595181,173.287755 191.434036,173.287755 191.434036,174.02449 Z" id="Path" fill="#161616"></path>
                    <path d="M49.9679217,133.465306 C49.9679217,138.544898 49.9679217,143.62449 49.9679217,148.704082 C49.9679217,149.440816 51.1290663,149.440816 51.1290663,148.704082 C51.1290663,143.62449 51.1290663,138.544898 51.1290663,133.465306 C51.1290663,132.728571 49.9679217,132.728571 49.9679217,133.465306 Z" id="Path" fill="#161616"></path>
                    <path d="M46.678012,152.814286 C46.678012,156.92449 46.678012,161.034694 46.678012,165.144898 C46.678012,165.881633 47.8391566,165.881633 47.8391566,165.144898 C47.8391566,161.034694 47.8391566,156.92449 47.8391566,152.814286 C47.8391566,152.077551 46.678012,152.077551 46.678012,152.814286 Z" id="Path" fill="#161616"></path>
                    <path d="M254.329367,195.738776 C219.340211,206.402041 184.351054,217.104082 149.361898,227.767347 C149.361898,183.253061 149.361898,138.738776 149.361898,94.2244898 C184.544578,86.1591837 219.727259,78.0938776 254.90994,70.0673469 C254.75512,111.944898 254.561596,153.822449 254.329367,195.738776 Z" id="Path" fill="#666666" opacity="0.21"></path>
                    <path d="M256.651657,196.242857 C221.004518,206.014286 185.396084,215.785714 149.748946,225.557143 C149.516717,186.587755 149.284488,147.657143 149.013554,108.687755 C164.766416,123.15102 180.557982,137.614286 196.310843,152.116327 C216.28253,145.485714 236.292922,138.855102 256.264608,132.22449 C256.419428,153.55102 256.535542,174.916327 256.651657,196.242857 Z" id="Path" fill="#666666" opacity="0.21"></path>
                    <path d="M198.671837,5.42857143 C196.775301,5.04081633 194.762651,18.1081633 188.144127,28.8489796 C182.14488,38.5816327 170.18509,49.9816327 143.827108,56.5734694 C147.233133,56.2632653 152.419578,55.5653061 158.496235,53.7816327 C164.80512,51.9591837 191.434036,44.2040816 198.439608,23.3816327 C201.303765,14.7734694 200.22003,5.73877551 198.671837,5.42857143 Z" id="Path" fill="#666666" opacity="0.14"></path>
                    <path d="M103.109639,88.4857143 C114.295331,96.0857143 125.519729,103.685714 136.705422,111.285714 C126.40994,109.502041 116.153163,107.757143 105.857681,105.973469 C106.283434,126.679592 107.986446,149.906122 111.934337,175.110204 C114.52756,191.667347 117.74006,207.061224 121.300904,221.17551 C115.843524,219.663265 110.34744,218.15102 104.89006,216.6 C104.309488,173.908163 103.728916,131.177551 103.109639,88.4857143 Z" id="Path" fill="#666666" opacity="0.2"></path>
                    <path d="M105.818976,88.8346939 C122.268524,86.4693878 138.756777,84.1040816 155.206325,81.7387755 C147.968524,80.7693878 140.730723,79.8 133.492922,78.8693878 C128.5,80.7306122 124.397289,82.0102041 121.533133,82.8632653 C118.591566,83.7163265 116.385392,84.2591837 113.095482,85.5387755 C109.960392,86.7408163 107.444578,87.9816327 105.818976,88.8346939 Z" id="Path" fill="#666666" opacity="0.13"></path>
                </g>
                <g id="hand_r" transform="translate(174.000000, 13.000000)">
                    <path d="M24.7073529,32.6430233 C24.8632353,35.7982558 25.1360294,40.3947674 25.6426471,45.8872093 C26.8897059,59.5598837 27.6301471,71.3627907 30.7867647,80.7116279 C33.1639706,87.7622093 38.7757353,100.967442 52.8051471,114.250581 C51.9867647,116.938372 50.6617647,120.327326 48.4404412,123.988953 C45.7125,128.468605 42.5948529,131.662791 40.2566176,133.727326 C28.7213235,122.469767 22.6808824,111.251163 19.4852941,104.005814 C11.6522059,86.1651163 11.4573529,69.9215116 11.3014706,57.8848837 C11.1845588,48.1075581 12.0029412,39.8883721 12.8602941,34.0063953 C11.4573529,32.6819767 9.31397059,30.6174419 6.625,28.1633721 C1.71470588,23.7226744 -0.155882353,22.2813953 0.155882353,21.6581395 C0.428676471,21.1127907 2.45514706,21.1517442 10.8727941,24.1511628 C3.62426471,14.8412791 0.389705882,9.85523256 1.16911765,9.11511628 C1.87058824,8.45290698 5.76764706,11.2575581 12.8992647,17.5290698 C7.59926471,4.3627907 6.74191176,0.428488372 7.44338235,0.0779069767 C8.14485294,-0.272674419 10.8727941,2.88255814 18.5110294,15.5424419 C17.3029412,5.33662791 17.6926471,3.03837209 18.3161765,2.88255814 C19.4073529,2.64883721 21.8235294,8.99825581 22.525,10.9069767 C24.1617647,15.2697674 25.0580882,19.0093023 25.5257353,21.5412791 C32.1117647,16.3604651 33.4367647,16.827907 33.7485294,17.1395349 C34.8786765,18.1523256 31.8779412,23.294186 31.1375,24.5796512 C28.9941176,28.319186 26.5389706,30.9680233 24.7073529,32.6430233 Z" id="Path" stroke="#161616" stroke-width="2" fill="#F9D8D8"></path>
                    <path d="M7.79411765,0.701162791 C7.13161765,1.05174419 9.58676471,7.59593023 12.7823529,13.1662791 C13.6786765,14.6854651 14.2242647,15.4255814 18.9397059,22.5151163 C20.8492647,25.3976744 22.4080882,27.7348837 23.4602941,29.2930233 C22.0963235,34.9023256 20.6154412,42.6151163 20.2257353,51.8860465 C19.9529412,58.3523256 19.5242647,71.1680233 24.0448529,86.5156977 C28.9551471,103.187791 37.4897059,115.224419 43.725,122.508721 C46.7257353,119.82093 49.7264706,117.13314 52.7272059,114.445349 C39.8279412,102.05814 34.1382353,89.6319767 31.5272059,82.5813953 C27.825,72.5313953 26.8117647,62.8709302 25.9154412,54.4569767 C24.9411765,45.6924419 24.8242647,38.2912791 24.9022059,32.8767442 C26.8897059,31.3186047 29.8514706,28.5918605 32.0338235,24.3459302 C32.5014706,23.4110465 35.0735294,18.4639535 33.7875,17.3732558 C32.4235294,16.2046512 27.4742647,19.944186 25.4088235,21.5412791 C20.8492647,6.46627907 19.0176471,3.07732558 18.2772059,3.23313953 C17.8485294,3.31104651 17.7316176,4.55755814 17.5757353,6.54418605 C17.2639706,10.5953488 17.9654412,13.9063953 18.6279412,15.9709302 C18.5889706,16.0488372 18.5889706,16.0488372 7.79411765,0.701162791 Z" id="Path" fill="#666666" opacity="0.15"></path>
                    <path d="M32.7352941,20.9180233 C31.1375,21.6581395 27.7470588,23.4889535 25.0580882,27.3843023 C22.6029412,30.9290698 21.9404412,34.3569767 21.7455882,36.1098837 C21.2,41.5633721 21.0830882,47.7959302 21.7845588,54.5348837 C24.2397059,78.5302326 35.5022059,96.1372093 42.7897059,105.525 C37.7625,97.227907 31.2933824,84.4901163 27.5911765,67.8569767 C24.3955882,53.6 24.2786765,41.2127907 24.8632353,32.2924419 C26.3830882,30.6953488 28.0977941,28.6697674 29.7345588,26.1767442 C30.9816176,24.3069767 31.9558824,22.5151163 32.7352941,20.9180233 Z" id="Path" fill="#666666" opacity="0.2"></path>
                </g>
                <g id="hand_l" transform="translate(258.000000, 25.000000)">
                    <path d="M7.33882979,99.5356037 C4.65957447,100.773994 2.40744681,101.625387 1.08723404,104.063467 C-1.5143617,108.823529 1.94148936,115.170279 2.79574468,116.756966 C4.97021277,120.781734 8.07659574,123.258514 10.4452128,124.729102 C17.9781915,121.478328 29.2388298,115.286378 39.2180851,103.869969 C52.1095745,89.125387 55.837234,73.4907121 57.7787234,65.0928793 C60.3803191,53.6377709 60.4968085,43.8467492 60.1473404,37.1904025 C62.05,33.9009288 64.8069149,29.2569659 68.3404255,23.6842105 C71.4468085,18.7306502 73.1553191,16.1377709 72.4952128,15.4411765 C71.9904255,14.9380805 70.0489362,15.3637771 63.1760638,20.2786378 C65.6611702,10.6424149 66.4765957,5.6501548 65.5835106,5.30185759 C64.7292553,4.99226006 62.3218085,8.90092879 58.3611702,17.0665635 C58.943617,5.92105263 58.6718085,0.270897833 57.5457447,0.116099071 C56.3808511,-0.0773993808 54.2452128,5.99845201 51.1388298,18.2662539 C49.3138298,9.79102167 47.993617,5.61145511 47.1393617,5.68885449 C46.1297872,5.80495356 45.8191489,11.8034056 46.1297872,23.6455108 C40.2664894,20.4334365 36.9271277,19.2724458 36.1117021,20.2399381 C34.9856383,21.5944272 38.7521277,26.9349845 47.4111702,36.3390093 C47.6053191,39.9767802 47.5664894,45.7817337 46.168617,52.6315789 C45.4696809,56.0758514 40.4994681,80.3018576 23.5696809,89.8993808 C18.0946809,93.0340557 13.0079787,96.9040248 7.33882979,99.5356037 Z" id="Path" stroke="#161616" stroke-width="2" fill="#F9D8D8"></path>
                    <path d="M65.5835106,5.2244582 C64.962234,5.03095975 63.9138298,8.59133127 59.6425532,14.7058824 C58.6329787,16.1764706 58.1670213,16.7182663 57.7787234,17.879257 C56.7303191,21.24613 58.5941489,23.374613 58.5164894,26.1996904 C58.4388298,28.2120743 57.3904255,31.0371517 52.5755319,34.4427245 C53.3909574,37.3452012 54.2840426,41.4860681 54.5558511,46.4783282 C55.6042553,66.4086687 45.1202128,80.998452 41.4702128,87.0743034 C38.0143617,92.8405573 27.6856383,107.778638 2.56276596,116.950464 C2.75691489,117.917957 3.45585106,120.588235 5.86329787,122.716718 C7.33882979,124.032508 8.89202128,124.613003 9.82393617,124.845201 C15.0271277,122.716718 22.2494681,119.078947 29.7047872,112.964396 C41.4702128,103.289474 47.1781915,92.7244582 49.8962766,87.5386997 C60.8851064,66.7182663 60.8851064,46.4009288 60.1473404,36.2616099 C62.3606383,32.7786378 64.3021277,29.7213622 65.8164894,27.3219814 C71.2526596,18.7306502 72.9611702,15.9829721 72.3010638,15.3250774 C71.9515957,14.9767802 70.7867021,15.1315789 67.0202128,17.6857585 C65.7388298,18.4597523 64.4574468,19.2724458 63.1760638,20.0464396 C65.9329787,8.4752322 66.1271277,5.37925697 65.5835106,5.2244582 Z" id="Path" fill="#666666" opacity="0.16"></path>
                    <path d="M67.1755319,25.1160991 C58.2446809,30.5727554 56.1478723,35.2167183 55.9537234,38.5448916 C55.8760638,39.8606811 56.1090426,40.2089783 56.3808511,43.3436533 C56.3808511,43.3436533 56.1478723,49.0712074 56.2255319,56.2306502 C56.3420213,66.4473684 52.1095745,75.6965944 46.9452128,86.9195046 C44.2271277,92.8018576 40.1888298,100.541796 34.2090426,109.017028 C38.5191489,104.760062 43.1398936,99.3034056 47.2946809,92.5309598 C60.5744681,70.6656347 60.5744681,48.374613 59.7978723,37.6547988 C62.2441489,33.4365325 64.6904255,29.2569659 67.1755319,25.1160991 Z" id="Path" fill="#666666" opacity="0.28"></path>
                    <path d="M35.9952128,20.8978328 C44.6542553,25.3095975 47.1005319,26.0448916 47.3723404,25.6578947 C47.6053191,25.2708978 46.168617,23.7616099 44.8484043,22.9102167 C44.3047872,22.5619195 43.5670213,22.2136223 42.0914894,21.5944272 C39.4510638,20.4721362 38.7521277,20.3947368 38.2473404,20.3947368 C37.237766,20.3560372 36.4611702,20.6656347 35.9952128,20.8978328 Z" id="Path" fill="#666666" opacity="0.11"></path>
                </g>
                <g id="leg_r" transform="translate(154.000000, 197.000000)">
                    <path d="M24.1909574,94.4608696 C23.8803191,96.4173913 25.6664894,98.726087 29.1611702,103.382609 C31.025,105.847826 32.7335106,107.726087 33.8595745,108.93913 C32.112234,112.108696 29.0446809,118.917391 30.5590426,127.056522 C31.025,129.678261 31.8404255,134.021739 34.1702128,134.569565 C38.2085106,135.547826 44.2271277,124.473913 46.5957447,119.230435 C49.275,113.321739 50.4398936,107.96087 51.0223404,104.165217 C46.9840426,98.6869565 42.9069149,93.2086957 38.868617,87.7304348 C30.8308511,88.4347826 24.6957447,91.0173913 24.1909574,94.4608696 Z" id="Path" stroke="#161616" stroke-width="2" fill="#161616"></path>
                    <path d="M71.718617,10.8391304 C74.281383,30.2869565 70.3207447,37.9565217 65.8553191,41.2434783 C61.8170213,44.2173913 57.8175532,43.2391304 48.2654255,46.0173913 C39.9170213,48.4826087 33.5101064,52.0043478 29.2776596,54.7434783 C29.8212766,58.6565217 30.9473404,63.6652174 33.1994681,69.1043478 C36.7718085,77.7130435 41.7420213,83.7782609 45.2755319,87.4173913 C44.5765957,88.9043478 41.6643617,94.6173913 34.8691489,97.5130435 C29.3553191,99.9 24.3851064,99.0391304 22.5601064,98.6478261 C16.3473404,92.8565217 6.79521277,82.0956522 2.48510638,66.2478261 C0.737765957,59.7913043 -1.39787234,51.4565217 1.74734043,42.1434783 C3.72765957,36.3130435 6.79521277,33.026087 12.9691489,26.4521739 C14.9882979,24.3 23.8026596,15.1043478 39.412234,6.73043478 C48.537234,1.83913043 53.1579787,-0.626086957 58.6329787,0.508695652 C65.5835106,2.03478261 69.893617,7.90434783 71.718617,10.8391304 Z" id="Path" fill="#EC615B"></path>
                    <path d="M62.6324468,9.66521739 C56.3420213,13.5 47.6053191,19.0956522 37.5095745,26.4130435 C20.0361702,39.0913043 12.037234,45.8608696 9.16382979,52.9043478 C6.36808511,59.7521739 8.34840426,72.273913 33.587766,97.1217391 C34.9468085,96.8478261 37.0824468,96.1826087 39.2180851,94.6956522 C42.6739362,92.3086957 44.2659574,89.1 44.8484043,87.6521739 C42.0138298,84.7173913 38.6356383,80.5695652 35.6069149,75.0913043 C31.2968085,67.2652174 29.5882979,59.9478261 28.8505319,54.9782609 C36.7718085,49.3826087 43.7223404,47.073913 48.7702128,46.0173913 C56.3031915,44.4130435 62.3994681,45.0391304 67.0590426,40.1869565 C69.4276596,37.7217391 70.3595745,34.9043478 71.2138298,32.3217391 C73.6212766,25.0826087 72.7281915,18.6652174 71.9904255,15.3391304 C68.8840426,13.5 65.7388298,11.5826087 62.6324468,9.66521739 Z" id="Path" fill="#666666" opacity="0.21"></path>
                    <path d="M60.3026596,15.1826087 C59.487234,18.7826087 58.1670213,22.8130435 56.1867021,27.0391304 C49.275,41.5956522 37.8978723,49.6565217 31.568617,53.4130435 C36.6553191,50.0086957 41.1595745,48.2086957 44.343617,47.1913043 C45.4308511,46.8391304 46.5569149,46.526087 58.4776596,43.3956522 C63.9138298,41.9478261 65.4670213,41.5565217 67.0978723,39.9913043 C68.068617,39.0521739 69.6606383,37.1347826 70.9031915,30.1695652 C71.5244681,26.6086957 72.1457447,21.4043478 71.718617,14.9478261 C67.8744681,15.026087 64.0691489,15.1043478 60.3026596,15.1826087 Z" id="Path" fill="#666666" opacity="0.16"></path>
                    <path d="M28.8893617,53.8826087 C27.8409574,58.8521739 26.5984043,68.4 29.8601064,79.5521739 C31.9180851,86.5956522 35.1409574,91.9173913 37.6260638,95.4 C38.7909574,94.7347826 40.4218085,93.6 42.0138298,91.8 C43.3728723,90.2347826 44.2271277,88.7086957 44.7707447,87.5347826 C41.9361702,84.6 38.5191489,80.4521739 35.5292553,74.9347826 C31.025,66.6391304 29.4718085,58.8913043 28.8893617,53.8826087 Z" id="Path" fill="#666666" opacity="0.17"></path>
                </g>
                <g id="leg_l" transform="translate(181.000000, 196.000000)">
                    <path d="M23.6861702,92.7852071 C26.2489362,96.389645 28.8505319,99.9553254 31.4132979,103.559763 C30.0154255,107.241716 26.4819149,118.132544 31.6851064,126.736686 C32.5781915,128.209467 34.1702128,130.84497 36.3835106,130.883728 C41.0819149,130.961243 44.537766,119.334024 45.2367021,117.086095 C46.4015957,113.249112 47.6053191,107.319231 46.906383,99.6840237 C45.1590426,88.4831361 37.0047872,82.4369822 31.4132979,83.6772189 C26.287766,84.8011834 23.9579787,92.0100592 23.6861702,92.7852071 Z" id="Path" stroke="#161616" stroke-width="2" fill="#161616"></path>
                    <path d="M71.718617,10.6195266 C75.0191489,31.3934911 68.3015957,38.6023669 65.8553191,40.7340237 C63.5643617,42.7106509 61.3510638,43.4857988 48.9643617,47.5940828 C44.343617,49.1443787 37.5484043,51.3923077 29.2388298,54.1053254 C29.7824468,57.9810651 30.9085106,62.9420118 33.1606383,68.3292899 C36.7329787,76.8559172 41.7031915,82.8633136 45.2367021,86.4677515 C44.537766,87.9405325 41.6255319,93.5991124 34.8303191,96.4671598 C29.3164894,98.8313609 24.3462766,97.9786982 22.5212766,97.5911243 C16.3085106,91.8550296 6.75638298,81.1967456 2.4462766,65.5 C0.69893617,59.1050296 -1.43670213,50.8497041 1.70851064,41.6254438 C3.68882979,35.8505917 6.75638298,32.5949704 12.9303191,26.0837278 C14.9494681,23.952071 23.7638298,14.8440828 39.3734043,6.55 C48.4984043,1.70532544 53.1191489,-0.736390533 58.5941489,0.387573964 C65.6223404,1.86035503 69.893617,7.71272189 71.718617,10.6195266 Z" id="Path" fill="#EC615B"></path>
                    <path d="M46.168617,9.76686391 C44.9260638,13.6038462 42.4797872,19.8050296 37.8202128,26.3550296 C26.2489362,42.5556213 13.2021277,43.5245562 9.47446809,52.593787 C6.6787234,59.3763314 8.65904255,71.7786982 33.8984043,96.389645 C35.412766,95.7695266 37.3542553,94.8393491 39.3734043,93.3278107 C42.2856383,91.1573964 44.1106383,88.7156805 45.1978723,87.010355 C42.3244681,84.0260355 38.9851064,79.9177515 35.956383,74.5692308 C31.4909574,66.6239645 29.6271277,59.2213018 28.7728723,54.1053254 C37.587234,51.1210059 44.6930851,48.9118343 49.4303191,47.4390533 C58.9047872,44.5710059 63.7585106,43.3307692 67.525,38.5636095 C69.8547872,35.5792899 70.8255319,32.4399408 71.4468085,30.3857988 C73.3882979,24.0683432 72.8446809,18.5647929 72.3010638,15.3866864 C63.6031915,13.5650888 54.9053191,11.6659763 46.168617,9.76686391 Z" id="Path" fill="#666666" opacity="0.21"></path>
                    <path d="M60.6132979,15.1928994 C59.7978723,18.7973373 58.5164894,22.7893491 56.4973404,26.9363905 C48.4984043,43.2532544 34.2478723,51.2372781 27.5691489,54.3766272 C34.3255319,52.2449704 40.4218085,50.3071006 45.7414894,48.6017751 C45.7414894,48.6017751 48.4984043,47.710355 55.2547872,45.3073964 C63.875,42.2068047 65.3505319,41.4316568 66.8260638,39.9588757 C69.4276596,37.3233728 70.1265957,34.3778107 71.175,30.0757396 C71.9515957,26.7813609 72.8058511,21.5878698 71.9904255,14.9991124 C68.2239362,15.0766272 64.418617,15.154142 60.6132979,15.1928994 Z" id="Path" fill="#666666" opacity="0.16"></path>
                    <path d="M29.2,53.5627219 C28.1515957,58.4849112 26.9090426,67.941716 30.1707447,78.987574 C32.2287234,85.9639053 35.4515957,91.2349112 37.9367021,94.6843195 C39.1015957,94.0254438 40.7324468,92.9014793 42.3244681,91.1186391 C43.6835106,89.5683432 44.537766,88.0568047 45.081383,86.8940828 C42.2468085,83.9872781 38.8297872,79.8789941 35.8398936,74.4142012 C31.3356383,66.1976331 29.7824468,58.5236686 29.2,53.5627219 Z" id="Path" fill="#666666" opacity="0.17"></path>
                </g>
                <g id="torso" transform="translate(200.000000, 118.000000)">
                    <path d="M25.5891429,6.43855422 C17.94,11.9903614 14.3125714,20.5108434 13.4845714,22.5156627 C12.972,23.7108434 11.5131429,27.4891566 10.8428571,32.6939759 C10.0542857,38.6313253 10.6851429,43.6048193 11.316,46.8819277 C11.592,51.4698795 11.4342857,59.0650602 8.16171429,67.7012048 C5.83542857,73.9084337 2.68114286,78.5349398 0.197142857,81.6578313 C5.244,85.4361446 14.7462857,91.5662651 28.2702857,94.4192771 C39.1131429,96.7325301 48.3394286,96.0385542 54.1354286,95.113253 C57.5262857,85.7445783 60.8382857,75.0650602 63.5588571,63.1903614 C66.1217143,52.0096386 67.8171429,41.6 68.8817143,32.1927711 C67.1862857,31.3831325 62.2182857,28.8385542 59.6948571,23.2096386 C59.5371429,22.8626506 55.9097143,14.4963855 59.9314286,9.48433735 C62.3365714,6.51566265 65.7274286,6.8626506 65.7274286,5.9373494 C65.7274286,3.46987952 41.676,-5.20481928 25.5891429,6.43855422 Z" id="Path" stroke="#161616" stroke-width="2" fill="#FFFFFF"></path>
                    <path d="M36.1165714,2.39036145 C35.328,3.77831325 35.052,7.47951807 35.052,9.56144578 C35.052,11.7590361 35.2885714,13.6096386 35.5645714,14.9204819 C35.5645714,14.9204819 35.5645714,14.9204819 35.5645714,14.9204819 C35.5645714,18.3518072 39.3497143,35.3156627 36.708,51.4313253 C33.672,69.9373494 23.46,84.2024096 18.492,90.4096386 C22.4742857,92.2216867 28.428,94.3807229 35.9588571,95.3445783 C43.4502857,96.2698795 49.7194286,95.653012 54.0565714,94.9204819 C56.8954286,86.9783133 59.5765714,78.226506 61.9422857,68.7036145 C65.1754286,55.6722892 67.1862857,43.5277108 68.4085714,32.6939759 C66.3582857,31.3831325 59.892,26.9108434 58.3148571,19.1614458 C57.8811429,16.9253012 57.0925714,13.146988 59.4188571,9.75421687 C61.5085714,6.66987952 64.86,5.7060241 66.0428571,5.43614458 C50.6657143,-0.192771084 38.2457143,-1.38795181 36.1165714,2.39036145 Z" id="Path" fill="#666666" opacity="0.13"></path>
                    <path d="M58.3937143,21.7445783 C58.9062857,28.4915663 58.788,36.8192771 56.8954286,46.1108434 C51.9668571,70.5156627 37.9302857,86.8240964 30.36,94.3807229 C33.5142857,95.1903614 37.7331429,95.9614458 42.7405714,95.9614458 C47.2354286,96 51.06,95.4216867 54.0171429,94.7662651 C59.4977143,80.5012048 64.3474286,63.8843373 67.068,45.146988 C67.6988571,40.8289157 68.2114286,36.626506 68.5662857,32.5012048 C66.8314286,31.4987952 64.4657143,29.8409639 62.1788571,27.2963855 C60.4045714,25.2915663 59.1822857,23.3253012 58.3937143,21.7445783 Z" id="Path" fill="#666666" opacity="0.17"></path>
                    <path d="M31.5034286,7.94216867 C33.4748571,11.5662651 37.26,13.8409639 41.3211429,13.9180723 C47.7085714,14.0722892 52.8737143,8.71325301 52.1245714,6.82409639 C51.612,5.51325301 47.7085714,4.74216867 31.5034286,7.94216867 Z" id="Path" fill="#666666" opacity="0.14"></path>
                </g>
                <g id="head" transform="translate(211.000000, 61.000000)">
                    <path d="M10.5,13.8639053 C9.26923077,13.7467456 8.11538462,20.4639053 5.46153846,30.852071 C1.30769231,47.2153846 -1.19230769,51.4331361 1.42307692,57.0568047 C1.88461538,58.0331361 3.73076923,61.9384615 7.76923077,63.5005917 C12,65.1408284 18.1153846,64.0473373 21.0769231,60.3763314 C27.8076923,52.0189349 14.5,34.6011834 11.6538462,16.8710059 C11.5,16.0899408 11.1923077,13.9420118 10.5,13.8639053 Z" id="Path" fill="#483989"></path>
                    <path d="M21.5,54.7136095 C21.8461538,56.1585799 22.2307692,58.3846154 21.8846154,61.0402367 C21.6923077,62.6804734 21.2692308,64.0473373 20.8846154,65.1408284 C22.5384615,65.6094675 25.0769231,66.1171598 28.1153846,65.9609467 C31.6923077,65.7656805 34.5,64.7112426 36.1538462,63.9301775 C35.5769231,62.6414201 35.0384615,61.235503 34.5384615,59.6343195 C33.6538462,56.8615385 33.1923077,54.2840237 32.9230769,52.0579882 C32.3846154,52.7218935 30.5769231,54.6745562 27.5,55.3384615 C24.6153846,55.9633136 22.3076923,55.0650888 21.5,54.7136095 Z" id="Path" stroke="#161616" stroke-width="2" fill="#F9D8D8"></path>
                    <path d="M10.8461538,18.3550296 C7.03846154,28.5088757 7.30769231,42.2946746 14.9230769,52.1360947 C16.1153846,53.6982249 17.2692308,54.8307692 18.0384615,55.5337278 C23.3461538,56.0414201 27.4230769,55.1822485 29.8846154,54.4402367 C31.6153846,53.9325444 33.3846154,53.3857988 35.2692308,52.0970414 C39.4615385,49.2461538 41.1923077,44.9502959 41.8461538,42.8414201 C43.0769231,43.8568047 44.0384615,44.0130178 44.6923077,43.9739645 C48.1538462,43.739645 51.7307692,37.2177515 49.6153846,32.843787 C48.4615385,30.4615385 46,29.4852071 45,29.1727811 C44.2307692,26.087574 41.4230769,16.5585799 32.5769231,11.208284 C30.3076923,9.84142012 23.5,5.7408284 17.6923077,8.55266272 C13.8461538,10.3881657 12.3461538,14.3715976 10.8461538,18.3550296 Z" id="Path" stroke="#161616" stroke-width="2" fill="#F9D8D8"></path>
                    <path d="M22.5384615,57.0568047 C22.4230769,57.095858 22.2692308,57.1349112 22.1538462,57.2130178 C21.5384615,57.4473373 21.6538462,58.3065089 22.3076923,58.3455621 C25.5,58.6579882 29.4615385,56.5100592 32.0384615,54.7526627 C32.6538462,54.3230769 32.0769231,53.3076923 31.4615385,53.7372781 C29.0384615,55.3775148 25.3076923,57.4473373 22.3076923,57.1739645 C22.3461538,57.564497 22.4230769,57.9550296 22.4615385,58.3065089 C22.5769231,58.2674556 22.7307692,58.2284024 22.8461538,58.1502959 C23.5384615,57.9159763 23.2307692,56.783432 22.5384615,57.0568047 Z" id="Path" fill="#161616"></path>
                    <path d="M22.6538462,57.6035503 C25.1153846,57.252071 27.5384615,56.5881657 29.8461538,55.6508876 C30.5384615,55.3775148 30.2307692,54.2449704 29.5384615,54.5183432 C27.1923077,55.4556213 24.8076923,56.1195266 22.3461538,56.4710059 C21.6153846,56.5881657 21.9230769,57.7207101 22.6538462,57.6035503 Z" id="Path" fill="#161616"></path>
                    <path d="M22.8076923,56.9786982 C23.6538462,57.0568047 24.5384615,57.0177515 25.3846154,56.783432 C26.1153846,56.5881657 25.8076923,55.4556213 25.0769231,55.6508876 C24.3461538,55.8461538 23.5769231,55.8852071 22.8076923,55.8071006 C22.0769231,55.7289941 22.0769231,56.9005917 22.8076923,56.9786982 Z" id="Path" fill="#161616"></path>
                    <path d="M29.9230769,36.983432 C30.6538462,36.983432 30.6538462,35.8118343 29.9230769,35.8118343 C29.1923077,35.8118343 29.1923077,36.983432 29.9230769,36.983432 Z" id="Path" fill="#161616"></path>
                    <path d="M33.5,36.3976331 C33.5,36.3585799 33.5,36.3195266 33.5,36.3195266 C33.5,36.0071006 33.2307692,35.7337278 32.9230769,35.7337278 C32.6153846,35.7337278 32.3461538,36.0071006 32.3461538,36.3195266 C32.3461538,36.3585799 32.3461538,36.3976331 32.3461538,36.3976331 C32.3461538,36.7100592 32.6153846,36.983432 32.9230769,36.983432 C33.2307692,36.9443787 33.5,36.7100592 33.5,36.3976331 Z" id="Path" fill="#161616"></path>
                    <path d="M31.6923077,39.2485207 C32.4230769,39.2485207 32.4230769,38.0769231 31.6923077,38.0769231 C30.9615385,38.0769231 30.9615385,39.2485207 31.6923077,39.2485207 Z" id="Path" fill="#161616"></path>
                    <path d="M11.9615385,34.3278107 C12.6923077,34.3278107 12.6923077,33.156213 11.9615385,33.156213 C11.2307692,33.156213 11.2307692,34.3278107 11.9615385,34.3278107 Z" id="Path" fill="#161616"></path>
                    <path d="M14.6923077,33.4686391 C15.4230769,33.4686391 15.4230769,32.2970414 14.6923077,32.2970414 C13.9615385,32.2970414 13.9230769,33.4686391 14.6923077,33.4686391 Z" id="Path" fill="#161616"></path>
                    <path d="M14.0384615,36.2023669 C14.7692308,36.2023669 14.7692308,35.0307692 14.0384615,35.0307692 C13.2692308,35.0307692 13.2692308,36.2023669 14.0384615,36.2023669 Z" id="Path" fill="#161616"></path>
                    <path d="M8.88461538,25.7360947 C8.11538462,24.6816568 6.23076923,21.791716 6.30769231,17.8473373 C6.34615385,15.1136095 7.26923077,13.1218935 7.76923077,12.0674556 C9.5,8.47455621 12.1153846,6.52189349 14.2692308,4.99881657 C16.2692308,3.55384615 20,0.898224852 25.3076923,0.390532544 C32.3461538,-0.312426036 37.6923077,3.20236686 41.3846154,5.66272189 C48.5,10.3881657 51.7307692,16.5195266 52.4230769,17.8473373 C53.6153846,20.1905325 54.2307692,22.2213018 55.1923077,25.2674556 C56.2307692,28.6260355 56.2307692,29.5633136 57.9615385,37.295858 C59.6538462,44.9112426 59.8846154,45.1846154 59.7307692,46.8639053 C59.2692308,52.6047337 55.6153846,56.4710059 55.0384615,57.095858 C49.8846154,62.4071006 43.1923077,62.1337278 40.9230769,62.0556213 C37.8461538,61.9384615 36.5384615,61.0792899 36.0384615,60.7278107 C33,58.5017751 32.8076923,54.3230769 32.8076923,53.4639053 C34,52.7609467 35.5769231,51.6674556 37.0384615,49.9881657 C39.8846154,46.7467456 40.7692308,43.1928994 41.0769231,41.435503 C44.0384615,42.3337278 47,41.1621302 48.2307692,38.9751479 C49.9615385,35.7727811 47.5384615,31.1254438 44.8076923,30.7349112 C44.3846154,30.6568047 43.2307692,30.6177515 41.7307692,31.9065089 C40.5,29.016568 38.3076923,24.8378698 34.4230769,20.6982249 C29.6538462,15.5822485 24.5384615,12.9656805 21.4615385,11.6378698 C19.7307692,12.3798817 17.1538462,13.7857988 14.6538462,16.2461538 C10.9615385,19.7609467 9.5,23.7053254 8.88461538,25.7360947 Z" id="Path" fill="#483989"></path>
                    <path d="M31.5769231,17.652071 C33.1538462,20.2295858 35.6153846,25.1502959 35.5,31.5550296 C35.2692308,46.6295858 21,55.0650888 20.1153846,55.5337278 C21.0384615,55.6899408 30.0384615,57.1349112 36.3076923,50.652071 C39.6153846,47.2153846 40.6153846,43.2319527 40.9230769,41.3964497 C41.5769231,41.6307692 43.0384615,41.9822485 44.7307692,41.4745562 C45.1538462,41.3573964 47.6153846,40.6153846 48.4230769,38.2721893 C48.8076923,37.2177515 48.6923077,36.2414201 48.6153846,35.6946746 C48.5769231,35.0307692 48.4230769,33.4686391 47.2692308,32.1017751 C46.8461538,31.6331361 46.1923077,30.852071 45.1153846,30.6177515 C43.3846154,30.2662722 42.0384615,31.5550296 41.8461538,31.7112426 C40.9615385,29.5633136 39.6153846,26.9076923 37.6153846,24.095858 C35.4615385,21.3230769 33.3461538,19.1751479 31.5769231,17.652071 Z" id="Path" fill="#666666" opacity="0.14"></path>
                    <path d="M30.3846154,65.4532544 C29.2307692,62.1337278 28.0769231,58.7751479 26.9615385,55.4556213 C28.8461538,54.8307692 30.7692308,54.1668639 32.6538462,53.5420118 C33.6923077,56.9786982 34.6923077,60.4544379 35.7307692,63.8911243 C33.9615385,64.4378698 32.1923077,64.9455621 30.3846154,65.4532544 Z" id="Path" fill="#666666" opacity="0.18"></path>
                    <path d="M41.3461538,39.6781065 C40.3846154,41.8650888 38.6923077,45.0674556 35.6538462,48.1136095 C30.6538462,53.1514793 24.9615385,54.791716 22.3846154,55.3775148 C23.5,55.4556213 30.2307692,55.9242604 35.2307692,51.7065089 C37.9615385,49.4023669 39.3846154,46.4733728 39.3846154,46.4733728 C40.1153846,44.9502959 40.5384615,43.3881657 40.7307692,42.7242604 C41.0384615,41.5136095 41.2307692,40.4591716 41.3461538,39.6781065 Z" id="Path" fill="#666666" opacity="0.21"></path>
                    <path d="M32.9230769,64.9846154 C31.8076923,61.547929 30.7307692,58.0721893 29.6153846,54.635503 C30.5769231,54.3230769 31.5384615,53.9715976 32.5,53.6591716 C33.5384615,57.095858 34.6153846,60.5325444 35.6538462,63.9692308 C34.7692308,64.2816568 33.8461538,64.6331361 32.9230769,64.9846154 Z" id="Path" fill="#666666" opacity="0.18"></path>
                    <path d="M21.5,25.8532544 C20.4615385,30.0319527 19.6153846,34.2497041 18.9230769,38.5065089 C18.8076923,39.2094675 18.5769231,40.0295858 19.3076923,40.4201183 C20.1538462,40.8887574 22.1923077,40.2248521 23.0769231,40.0295858 C23.8076923,39.8733728 23.5,38.7408284 22.7692308,38.8970414 C22.1538462,39.0532544 21.0384615,39.4047337 20.4615385,39.3266272 C19.6923077,39.2094675 19.8846154,39.3656805 20.1153846,38.4674556 C20.4230769,37.139645 20.5769231,35.6946746 20.8461538,34.3668639 C21.3846154,31.6331361 21.9615385,28.8994083 22.6153846,26.2047337 C22.8076923,25.4627219 21.6923077,25.1502959 21.5,25.8532544 Z" id="Path" fill="#161616"></path>
                    <path d="M11.8461538,29.8366864 C13.3461538,28.0792899 15.9615385,28.0402367 17.5,29.7195266 C17.8846154,30.1491124 18.5,29.5242604 18.1153846,29.0946746 C16.2692308,27.0639053 13.0384615,27.1029586 11.2307692,29.2118343 C10.8846154,29.6414201 11.5,30.2662722 11.8461538,29.8366864 Z" id="Path" fill="#161616"></path>
                    <path d="M27.6538462,30.2662722 C29.6923077,28.9384615 32.4230769,29.5242604 33.7307692,31.6331361 C34.0384615,32.1017751 34.7692308,31.6721893 34.4615385,31.2035503 C32.9230769,28.704142 29.6538462,27.9230769 27.1923077,29.5242604 C26.7307692,29.7976331 27.1923077,30.5786982 27.6538462,30.2662722 Z" id="Path" fill="#161616"></path>
                    <path d="M14.2307692,23.0804734 C15.6153846,22.3384615 17.1538462,22.3775148 18.5,23.1585799 C19,23.4319527 19.4230769,22.6899408 18.9230769,22.416568 C17.3076923,21.4792899 15.4230769,21.4402367 13.7692308,22.3384615 C13.3076923,22.5727811 13.7307692,23.3538462 14.2307692,23.0804734 Z" id="Path" fill="#161616"></path>
                    <path d="M28.1153846,23.3147929 C30,23.0023669 31.8076923,23.5100592 33.3076923,24.6426036 C33.7692308,24.9940828 34.1923077,24.2130178 33.7307692,23.9005917 C32,22.6118343 29.9615385,22.1431953 27.8846154,22.4556213 C27.3461538,22.5727811 27.5769231,23.3928994 28.1153846,23.3147929 Z" id="Path" fill="#161616"></path>
                    <path d="M15.8461538,44.9893491 C20.0769231,46.3171598 24.5384615,45.3408284 27.8846154,42.4118343 C28.3076923,42.060355 27.6923077,41.435503 27.2692308,41.7869822 C24.1538462,44.5207101 20,45.3798817 16.0769231,44.1301775 C15.5384615,43.9349112 15.3076923,44.7940828 15.8461538,44.9893491 Z" id="Path" fill="#161616"></path>
                </g>
            </g>
        </g>
    </g>
</svg>